{"title":"Angel of Anywhere 2018 1080p WEB-DL DD 2.0 x264 [MW]","magnet":"magnet:?xt=urn:btih:05d8494cb97243ff49b94f2d21e8370a9b60f161&dn=Angel+of+Anywhere+2018+1080p+WEB-DL+DD+2.0+x264+%5BMW%5D&tr=udp%3A%2F%2Ftracker.leechers-paradise.org%3A6969&tr=udp%3A%2F%2Fzer0day.ch%3A1337&tr=udp%3A%2F%2Fopen.demonii.com%3A1337&tr=udp%3A%2F%2Ftracker.coppersurfer.tk%3A6969&tr=udp%3A%2F%2Fexodus.desync.com%3A6969","uploader":"MFreaky","categoryP":"video","categoryS":"hd___movies","size":"241372730","seeders":"0","leechers":"0","description":" <a href=\"https://pichub.site/image/aKArR\" rel=\"nofollow\" target=\"_NEW\">https://pichub.site/image/aKArR</a> <a href=\"\nhttps://pichub.site/image/aKg7B\" rel=\"nofollow\" target=\"_NEW\">\nhttps://pichub.site/image/aKg7B</a> <a href=\"\nhttps://pichub.site/image/aKmNY\" rel=\"nofollow\" target=\"_NEW\">\nhttps://pichub.site/image/aKmNY</a> <a href=\"\nhttps://pichub.site/image/aKuZ6\" rel=\"nofollow\" target=\"_NEW\">\nhttps://pichub.site/image/aKuZ6</a> <a href=\"\nhttps://pichub.site/image/aKNOt\" rel=\"nofollow\" target=\"_NEW\">\nhttps://pichub.site/image/aKNOt</a>\r\n\r\nGeneral\r\nFormat : Matroska\r\nFormat version : Version 4 / Version 2\r\nFile size : 230 MiB\r\nDuration : 16 min 0 s\r\nOverall bit rate : 2 011 kb/s\r\n\r\nVideo\r\nID : 1\r\nFormat : AVC\r\nFormat/Info : Advanced Video Codec\r\nFormat profile : High@L4.1\r\nFormat settings : CABAC / 4 Ref Frames\r\nFormat settings, CABAC : Yes\r\nFormat settings, RefFrames : 4 frames\r\nCodec ID : V_MPEG4/ISO/AVC\r\nDuration : 16 min 0 s\r\nBit rate : 2 000 kb/s\r\nWidth : 1 920 pixels\r\nHeight : 800 pixels\r\nDisplay aspect ratio : 2.40:1\r\nFrame rate mode : Constant\r\nFrame rate : 24.000 FPS\r\nColor space : YUV\r\nChroma subsampling : 4:2:0\r\nBit depth : 8 bits\r\nScan type : Progressive\r\nBits/(Pixel*Frame) : 0.054\r\nStream size : 219 MiB (95%)\r\nWriting library : x264 core 155 r2901 7d0ff22\r\nDefault : Yes\r\nForced : No\r\n\r\nAudio\r\nID : 3\r\nFormat : AC-3\r\nFormat/Info : Audio Coding 3\r\nCodec ID : A_AC3\r\nDuration : 15 min 59 s\r\nBit rate mode : Constant\r\nBit rate : 96.0 kb/s\r\nChannel(s) : 2 channels\r\nChannel positions : Front: L R\r\nSampling rate : 48.0 kHz\r\nFrame rate : 31.250 FPS (1536 SPF)\r\nBit depth : 16 bits\r\nCompression mode : Lossy\r\nStream size : 11.0 MiB (5%)\r\nLanguage : English\r\nService kind : Complete Main\r\nDefault : Yes\r\nForced : No\r\n\r\nText\r\nID : 2\r\nFormat : UTF-8\r\nCodec ID : S_TEXT/UTF8\r\nCodec ID/Info : UTF-8 Plain Text\r\nDuration : 14 min 18 s\r\nBit rate : 60 b/s\r\nCount of elements : 232\r\nStream size : 6.32 KiB (0%)\r\nTitle : SDH\r\nLanguage : English\r\nDefault : No\r\nForced : No","last_updated":"2018-07-16T12:01:58.931Z","parsed":{"xt":"urn:btih:05d8494cb97243ff49b94f2d21e8370a9b60f161","dn":"Angel of Anywhere 2018 1080p WEB-DL DD 2.0 x264 [MW]","tr":["udp://exodus.desync.com:6969","udp://open.demonii.com:1337","udp://tracker.coppersurfer.tk:6969","udp://tracker.leechers-paradise.org:6969","udp://zer0day.ch:1337"],"infoHash":"05d8494cb97243ff49b94f2d21e8370a9b60f161","infoHashBuffer":{"type":"Buffer","data":[5,216,73,76,185,114,67,255,73,185,79,45,33,232,55,10,155,96,241,97]},"name":"Angel of Anywhere 2018 1080p WEB-DL DD 2.0 x264 [MW]","announce":["udp://exodus.desync.com:6969","udp://open.demonii.com:1337","udp://tracker.coppersurfer.tk:6969","udp://tracker.leechers-paradise.org:6969","udp://zer0day.ch:1337"],"urlList":[]}}